<svg width="193" height="186" viewBox="0 0 193 186" fill="none" xmlns="http://www.w3.org/2000/svg">
<path d="M101.073 17.1326C101.073 17.1326 106.107 49.5043 160.371 50.3978C208.562 51.1912 193.246 108.509 176.14 126.533C153.98 149.88 110.553 143.773 108.273 170.948C105.994 198.124 44.771 187.573 45.8137 146.6C47.1109 95.6307 19.1924 111.129 5.05869 97.4955C-5.08515 87.7105 -1.59845 42.4159 30.554 37.2303C57.6095 32.8667 56.2069 21.4038 58.358 12.9179C61.4599 0.679341 92.8247 -10.407 101.073 17.1326Z" fill="#B5B2BC"/>
<path d="M137.951 56.7831L137.951 56.7832C138.947 57.7788 139.5 59.1288 139.5 60.5227V61.5H109.5V31.5H110.477C111.896 31.5 113.246 32.054 114.241 33.0487C114.241 33.0487 114.241 33.0488 114.241 33.0489L137.951 56.7831ZM52.8125 31.5H100.75V63.9375C100.75 67.4105 103.589 70.25 107.062 70.25H139.5V149.188C139.5 152.132 137.132 154.5 134.188 154.5H52.8125C49.8675 154.5 47.5 152.132 47.5 149.188V36.8125C47.5 33.8675 49.8675 31.5 52.8125 31.5Z" fill="#EEEEF0" stroke="#1A191B"/>
<path d="M114.761 117.024C108.983 111.245 101.145 107.999 92.9731 107.999C84.801 107.999 78.0199 110.189 72.2413 115.967" stroke="#1A191B"/>
<circle cx="75.9685" cy="98.3967" r="5.3967" fill="#1A191B"/>
<circle cx="111.031" cy="98.3967" r="5.3967" fill="#1A191B"/>
</svg>
