<svg width="221" height="228" viewBox="0 0 221 228" fill="none" xmlns="http://www.w3.org/2000/svg">
  <path
    d="M23.1835 99.4558C23.1835 99.4558 61.9544 97.9032 70.3329 34.1721C77.7732 -22.4273 143.151 3.3347 162.049 25.8965C186.53 55.1235 173.48 105.4 205.15 111.751C236.819 118.103 216.138 188.719 168.066 181.96C108.266 173.552 122.734 208.496 104.783 223.286C91.899 233.901 39.0719 223.683 37.3112 185.149C35.8296 152.724 22.1519 152.826 12.457 149.15C-1.52521 143.847 -10.3355 105.444 23.1835 99.4558Z"
    fill="#B5B2BC" />
  <path d="M154.983 170.233L116.892 132.594L109.349 140.227L147.44 177.866L154.983 170.233Z"
    fill="#6F6D78" />
  <path
    d="M169.534 180.347L139.899 151.063C139.734 150.9 139.468 150.902 139.305 151.067L128.088 162.418C127.925 162.583 127.927 162.849 128.092 163.012L157.727 192.296C157.892 192.459 158.158 192.457 158.321 192.292L169.537 180.941C169.7 180.776 169.699 180.51 169.534 180.347Z"
    fill="#1A191B" />
  <path
    d="M83.1311 151.524C109.337 151.524 130.581 130.28 130.581 104.074C130.581 77.8685 109.337 56.6246 83.1311 56.6246C56.9255 56.6246 35.6816 77.8685 35.6816 104.074C35.6816 130.28 56.9255 151.524 83.1311 151.524Z"
    fill="#1A191B" />
  <path
    d="M83.1312 143.782C105.061 143.782 122.838 126.004 122.838 104.074C122.838 82.1447 105.061 64.3672 83.1312 64.3672C61.2015 64.3672 43.424 82.1447 43.424 104.074C43.424 126.004 61.2015 143.782 83.1312 143.782Z"
    fill="#EEEEF0" />
</svg>